<?xml version="1.0" standalone="no"?><!DOCTYPE svg PUBLIC "-//W3C//DTD SVG 1.1//EN" "http://www.w3.org/Graphics/SVG/1.1/DTD/svg11.dtd"><svg t="1640084738626" class="icon" viewBox="0 0 1024 1024" version="1.1" xmlns="http://www.w3.org/2000/svg" p-id="13148" xmlns:xlink="http://www.w3.org/1999/xlink" width="200" height="200"><defs><style type="text/css"></style></defs><path d="M709.41 752.17H414.93c-128.48 0-232.64-104.15-232.64-232.64v-22.49c0-128.48 104.15-232.64 232.64-232.64h294.48c128.48 0 232.64 104.15 232.64 232.64v22.49c0 128.48-104.15 232.64-232.64 232.64z" fill="#F8CACE" p-id="13149"></path><path d="M639.54 741.1H351.22c-67.91 0-131.76-26.45-179.78-74.47S96.97 554.76 96.97 486.85v-12.48c0-67.91 26.45-131.76 74.47-179.78 48.02-48.02 111.87-74.47 179.78-74.47h288.31c36.46 0 71.66 7.56 104.63 22.46 8.57 3.87 12.38 13.96 8.5 22.53s-13.96 12.38-22.53 8.5c-28.53-12.9-59.01-19.44-90.6-19.44H351.22c-58.82 0-114.11 22.9-155.7 64.49s-64.49 96.88-64.49 155.7v12.48c0 58.82 22.9 114.11 64.49 155.7 41.59 41.59 96.88 64.49 155.7 64.49h288.31c58.82 0 114.11-22.9 155.7-64.49 41.59-41.59 64.49-96.88 64.49-155.7v-12.48c0-36.44-9.08-72.54-26.26-104.38-4.46-8.28-1.38-18.61 6.9-23.07 8.28-4.47 18.61-1.38 23.07 6.9 19.85 36.8 30.35 78.49 30.35 120.55v12.48c0 67.91-26.45 131.76-74.47 179.78S707.45 741.1 639.54 741.1zM632.87 165.12H357.9c-9.4 0-17.03-7.62-17.03-17.03s7.62-17.03 17.03-17.03h274.97c9.4 0 17.03 7.62 17.03 17.03s-7.63 17.03-17.03 17.03zM632.87 796.05H357.9c-9.4 0-17.03-7.62-17.03-17.03s7.62-17.03 17.03-17.03h274.97c9.4 0 17.03 7.62 17.03 17.03s-7.63 17.03-17.03 17.03z" fill="#E9505C" p-id="13150"></path><path d="M392.51 940.56c-9.4 0-17.03-7.62-17.03-17.03V794.15c0-9.4 7.62-17.03 17.03-17.03s17.03 7.62 17.03 17.03v129.38c-0.01 9.41-7.63 17.03-17.03 17.03zM467 940.56c-9.4 0-17.03-7.62-17.03-17.03V794.15c0-9.4 7.62-17.03 17.03-17.03s17.03 7.62 17.03 17.03v129.38c0 9.41-7.62 17.03-17.03 17.03zM541.5 940.56c-9.4 0-17.03-7.62-17.03-17.03V794.15c0-9.4 7.62-17.03 17.03-17.03s17.03 7.62 17.03 17.03v129.38c0 9.41-7.62 17.03-17.03 17.03zM616 940.56c-9.4 0-17.03-7.62-17.03-17.03V794.15c0-9.4 7.62-17.03 17.03-17.03s17.03 7.62 17.03 17.03v129.38c0 9.41-7.63 17.03-17.03 17.03zM495.69 677.15c-9.4 0-17.03-7.62-17.03-17.03V301.1c0-9.4 7.62-17.03 17.03-17.03s17.03 7.62 17.03 17.03v359.02c0 9.4-7.63 17.03-17.03 17.03zM642.56 668.15c-2.96 0-5.96-0.77-8.69-2.39-8.08-4.81-10.74-15.26-5.94-23.34 24.17-40.65 39.2-81.24 44.67-120.64 4.32-31.12 2.72-61.62-4.75-90.66-12.62-49.07-37.38-76.63-37.63-76.9-6.34-6.95-5.84-17.72 1.11-24.06s17.72-5.84 24.06 1.11c1.25 1.37 30.73 34.17 45.44 91.36 8.58 33.36 10.43 68.3 5.5 103.83-6.1 43.92-22.62 88.79-49.12 133.36-3.19 5.36-8.85 8.33-14.65 8.33zM337.07 668.15c-5.81 0-11.47-2.97-14.65-8.33-26.5-44.58-43.03-89.44-49.12-133.36-4.93-35.53-3.08-70.47 5.5-103.83 14.71-57.19 44.2-89.99 45.44-91.36 6.34-6.95 17.11-7.45 24.06-1.11 6.94 6.32 7.44 17.06 1.15 24.01-8.86 9.86-28.22 38.97-38.09 78.63-7.2 28.91-8.6 59.24-4.16 90.17 5.6 39.02 20.57 79.21 44.5 119.45 4.81 8.08 2.15 18.53-5.94 23.34a16.982 16.982 0 0 1-8.69 2.39z" fill="#E9505C" p-id="13151"></path></svg>